<svg width="200" height="200" viewBox="0 0 30 30" xmlns="http://www.w3.org/2000/svg">
    <defs>
        <style>
            #path1 {
                fill: #000000;
                animation: anim 1s infinite linear;
            }
            @keyframe anim{
                0% {
                    transform: rotateX(0deg);
                }
                100% {
                    transform: rotateX(260deg);
                }
            }
        </style>
    </defs>
    <g fill="none" fill-rule="evenodd">
        <path id="path1" d="M20.837 17.263c-.567.689-1.221 1-1.964.936-.742-.064-1.346-.459-1.81-1.182a1.873 1.873 0 0 1-.322-1.015c-.001-.438.151-.901.458-1.389.654-.679 1.3-1.02 1.935-1.021.212 0 .405.027.58.084.81.265 1.341.76 1.595 1.483.077.22.116.438.117.658.001.486-.195.968-.589 1.446m-8.186.024c-.567.688-1.221 1-1.964.936-.742-.065-1.346-.459-1.811-1.182a1.872 1.872 0 0 1-.321-1.015c-.002-.439.151-.902.458-1.389.654-.679 1.299-1.02 1.935-1.021.212 0 .405.027.58.084.81.265 1.341.76 1.594 1.483.078.22.117.439.118.658.001.486-.195.968-.589 1.446M23.507 7.74c-.725-.844-5.11-1.83-5.307-1.732-.196.097-.486 1.458-.486 1.458s-1.376-.288-2.75-.284c-1.374.004-2.748.3-2.748.3s-.298-1.359-.495-1.455c-.196-.097-4.576.915-5.296 1.763-2.64 3.115-3.991 11.082-3.2 13.118.441 1.136 5.605 3.188 6.096 3.09.49-.099 1.272-1.46 1.074-1.849-.197-.387-1.18-.676-1.573-.869-.394-.193-.1-.776.39-.583.578.226 2.066 1.353 5.797 1.342 3.73-.011 5.212-1.147 5.788-1.376.49-.196.786.386.394.58-.392.196-1.373.49-1.568.88-.195.388.594 1.746 1.085 1.841.491.096 5.643-1.987 6.077-3.125.78-2.041-.619-10-3.278-13.099"/>
        <path d="M0 0h30v30H0z"/>
    </g>
</svg>
